frame:0    pts:0       pts_time:0
lavfi.scd.mafd=0.000
lavfi.scd.score=0.000
lavfi.scd.time=0
frame:1    pts:512     pts_time:0.0416667
lavfi.scd.mafd=0.197
lavfi.scd.score=0.197
lavfi.scd.time=0.0416667
frame:2    pts:1024    pts_time:0.0833333
lavfi.scd.mafd=0.143
lavfi.scd.score=0.054
lavfi.scd.time=0.0833333
frame:3    pts:1536    pts_time:0.125
lavfi.scd.mafd=0.151
lavfi.scd.score=0.008
lavfi.scd.time=0.125
frame:4    pts:2048    pts_time:0.166667
lavfi.scd.mafd=0.132
lavfi.scd.score=0.019
lavfi.scd.time=0.166667
frame:5    pts:2560    pts_time:0.208333
lavfi.scd.mafd=0.139
lavfi.scd.score=0.007
lavfi.scd.time=0.208333
frame:6    pts:3072    pts_time:0.25
lavfi.scd.mafd=0.122
lavfi.scd.score=0.017
lavfi.scd.time=0.25
frame:7    pts:3584    pts_time:0.291667
lavfi.scd.mafd=0.136
lavfi.scd.score=0.014
lavfi.scd.time=0.291667
frame:8    pts:4096    pts_time:0.333333
lavfi.scd.mafd=0.132
lavfi.scd.score=0.004
lavfi.scd.time=0.333333
frame:9    pts:4608    pts_time:0.375
lavfi.scd.mafd=0.128
lavfi.scd.score=0.005
lavfi.scd.time=0.375
frame:10   pts:5120    pts_time:0.416667
lavfi.scd.mafd=0.269
lavfi.scd.score=0.142
lavfi.scd.time=0.416667
frame:11   pts:5632    pts_time:0.458333
lavfi.scd.mafd=0.163
lavfi.scd.score=0.106
lavfi.scd.time=0.458333
frame:12   pts:6144    pts_time:0.5
lavfi.scd.mafd=0.170
lavfi.scd.score=0.007
lavfi.scd.time=0.5
frame:13   pts:6656    pts_time:0.541667
lavfi.scd.mafd=0.175
lavfi.scd.score=0.005
lavfi.scd.time=0.541667
frame:14   pts:7168    pts_time:0.583333
lavfi.scd.mafd=0.181
lavfi.scd.score=0.006
lavfi.scd.time=0.583333
frame:15   pts:7680    pts_time:0.625
lavfi.scd.mafd=0.193
lavfi.scd.score=0.013
lavfi.scd.time=0.625
frame:16   pts:8192    pts_time:0.666667
lavfi.scd.mafd=0.211
lavfi.scd.score=0.017
lavfi.scd.time=0.666667
frame:17   pts:8704    pts_time:0.708333
lavfi.scd.mafd=0.191
lavfi.scd.score=0.020
lavfi.scd.time=0.708333
frame:18   pts:9216    pts_time:0.75
lavfi.scd.mafd=0.211
lavfi.scd.score=0.020
lavfi.scd.time=0.75
frame:19   pts:9728    pts_time:0.791667
lavfi.scd.mafd=0.257
lavfi.scd.score=0.046
lavfi.scd.time=0.791667
frame:20   pts:10240   pts_time:0.833333
lavfi.scd.mafd=0.170
lavfi.scd.score=0.088
lavfi.scd.time=0.833333
frame:21   pts:10752   pts_time:0.875
lavfi.scd.mafd=0.082
lavfi.scd.score=0.082
lavfi.scd.time=0.875
frame:22   pts:11264   pts_time:0.916667
lavfi.scd.mafd=0.071
lavfi.scd.score=0.011
lavfi.scd.time=0.916667
frame:23   pts:11776   pts_time:0.958333
lavfi.scd.mafd=0.079
lavfi.scd.score=0.008
lavfi.scd.time=0.958333
frame:24   pts:12288   pts_time:1
lavfi.scd.mafd=0.087
lavfi.scd.score=0.009
lavfi.scd.time=1
frame:25   pts:12800   pts_time:1.041667
lavfi.scd.mafd=0.125
lavfi.scd.score=0.038
lavfi.scd.time=1.041667
frame:26   pts:13312   pts_time:1.083333
lavfi.scd.mafd=0.107
lavfi.scd.score=0.018
lavfi.scd.time=1.083333
frame:27   pts:13824   pts_time:1.125
lavfi.scd.mafd=0.081
lavfi.scd.score=0.026
lavfi.scd.time=1.125
frame:28   pts:14336   pts_time:1.166667
lavfi.scd.mafd=0.093
lavfi.scd.score=0.012
lavfi.scd.time=1.166667
frame:29   pts:14848   pts_time:1.208333
lavfi.scd.mafd=0.094
lavfi.scd.score=0.001
lavfi.scd.time=1.208333
frame:30   pts:15360   pts_time:1.25
lavfi.scd.mafd=0.090
lavfi.scd.score=0.004
lavfi.scd.time=1.25
frame:31   pts:15872   pts_time:1.291667
lavfi.scd.mafd=0.134
lavfi.scd.score=0.044
lavfi.scd.time=1.291667
frame:32   pts:16384   pts_time:1.333333
lavfi.scd.mafd=0.122
lavfi.scd.score=0.011
lavfi.scd.time=1.333333
frame:33   pts:16896   pts_time:1.375
lavfi.scd.mafd=0.109
lavfi.scd.score=0.013
lavfi.scd.time=1.375
frame:34   pts:17408   pts_time:1.416667
lavfi.scd.mafd=0.105
lavfi.scd.score=0.005
lavfi.scd.time=1.416667
frame:35   pts:17920   pts_time:1.458333
lavfi.scd.mafd=0.077
lavfi.scd.score=0.028
lavfi.scd.time=1.458333
frame:36   pts:18432   pts_time:1.5
lavfi.scd.mafd=0.072
lavfi.scd.score=0.005
lavfi.scd.time=1.5
frame:37   pts:18944   pts_time:1.541667
lavfi.scd.mafd=0.082
lavfi.scd.score=0.010
lavfi.scd.time=1.541667
frame:38   pts:19456   pts_time:1.583333
lavfi.scd.mafd=0.066
lavfi.scd.score=0.016
lavfi.scd.time=1.583333
frame:39   pts:19968   pts_time:1.625
lavfi.scd.mafd=0.099
lavfi.scd.score=0.033
lavfi.scd.time=1.625
frame:40   pts:20480   pts_time:1.666667
lavfi.scd.mafd=0.115
lavfi.scd.score=0.016
lavfi.scd.time=1.666667
frame:41   pts:20992   pts_time:1.708333
lavfi.scd.mafd=0.146
lavfi.scd.score=0.031
lavfi.scd.time=1.708333
frame:42   pts:21504   pts_time:1.75
lavfi.scd.mafd=0.134
lavfi.scd.score=0.011
lavfi.scd.time=1.75
frame:43   pts:22016   pts_time:1.791667
lavfi.scd.mafd=0.105
lavfi.scd.score=0.029
lavfi.scd.time=1.791667
frame:44   pts:22528   pts_time:1.833333
lavfi.scd.mafd=0.101
lavfi.scd.score=0.004
lavfi.scd.time=1.833333
frame:45   pts:23040   pts_time:1.875
lavfi.scd.mafd=0.099
lavfi.scd.score=0.002
lavfi.scd.time=1.875
frame:46   pts:23552   pts_time:1.916667
lavfi.scd.mafd=0.091
lavfi.scd.score=0.008
lavfi.scd.time=1.916667
frame:47   pts:24064   pts_time:1.958333
lavfi.scd.mafd=0.117
lavfi.scd.score=0.027
lavfi.scd.time=1.958333
frame:48   pts:24576   pts_time:2
lavfi.scd.mafd=0.129
lavfi.scd.score=0.012
lavfi.scd.time=2
frame:49   pts:25088   pts_time:2.041667
lavfi.scd.mafd=0.130
lavfi.scd.score=0.001
lavfi.scd.time=2.041667
frame:50   pts:25600   pts_time:2.083333
lavfi.scd.mafd=0.119
lavfi.scd.score=0.012
lavfi.scd.time=2.083333
frame:51   pts:26112   pts_time:2.125
lavfi.scd.mafd=0.095
lavfi.scd.score=0.024
lavfi.scd.time=2.125
frame:52   pts:26624   pts_time:2.166667
lavfi.scd.mafd=0.092
lavfi.scd.score=0.003
lavfi.scd.time=2.166667
frame:53   pts:27136   pts_time:2.208333
lavfi.scd.mafd=0.084
lavfi.scd.score=0.008
lavfi.scd.time=2.208333
frame:54   pts:27648   pts_time:2.25
lavfi.scd.mafd=0.089
lavfi.scd.score=0.005
lavfi.scd.time=2.25
frame:55   pts:28160   pts_time:2.291667
lavfi.scd.mafd=0.128
lavfi.scd.score=0.038
lavfi.scd.time=2.291667
frame:56   pts:28672   pts_time:2.333333
lavfi.scd.mafd=0.147
lavfi.scd.score=0.020
lavfi.scd.time=2.333333
frame:57   pts:29184   pts_time:2.375
lavfi.scd.mafd=0.158
lavfi.scd.score=0.010
lavfi.scd.time=2.375
frame:58   pts:29696   pts_time:2.416667
lavfi.scd.mafd=0.152
lavfi.scd.score=0.006
lavfi.scd.time=2.416667
frame:59   pts:30208   pts_time:2.458333
lavfi.scd.mafd=0.152
lavfi.scd.score=0.000
lavfi.scd.time=2.458333
frame:60   pts:30720   pts_time:2.5
lavfi.scd.mafd=0.119
lavfi.scd.score=0.034
lavfi.scd.time=2.5
frame:61   pts:31232   pts_time:2.541667
lavfi.scd.mafd=0.126
lavfi.scd.score=0.008
lavfi.scd.time=2.541667
frame:62   pts:31744   pts_time:2.583333
lavfi.scd.mafd=0.144
lavfi.scd.score=0.018
lavfi.scd.time=2.583333
frame:63   pts:32256   pts_time:2.625
lavfi.scd.mafd=0.135
lavfi.scd.score=0.010
lavfi.scd.time=2.625
frame:64   pts:32768   pts_time:2.666667
lavfi.scd.mafd=0.327
lavfi.scd.score=0.192
lavfi.scd.time=2.666667
frame:65   pts:33280   pts_time:2.708333
lavfi.scd.mafd=0.181
lavfi.scd.score=0.146
lavfi.scd.time=2.708333
frame:66   pts:33792   pts_time:2.75
lavfi.scd.mafd=0.167
lavfi.scd.score=0.014
lavfi.scd.time=2.75
frame:67   pts:34304   pts_time:2.791667
lavfi.scd.mafd=0.120
lavfi.scd.score=0.047
lavfi.scd.time=2.791667
frame:68   pts:34816   pts_time:2.833333
lavfi.scd.mafd=0.117
lavfi.scd.score=0.004
lavfi.scd.time=2.833333
frame:69   pts:35328   pts_time:2.875
lavfi.scd.mafd=0.140
lavfi.scd.score=0.023
lavfi.scd.time=2.875
frame:70   pts:35840   pts_time:2.916667
lavfi.scd.mafd=0.166
lavfi.scd.score=0.026
lavfi.scd.time=2.916667
frame:71   pts:36352   pts_time:2.958333
lavfi.scd.mafd=0.210
lavfi.scd.score=0.044
lavfi.scd.time=2.958333
frame:72   pts:36864   pts_time:3
lavfi.scd.mafd=0.214
lavfi.scd.score=0.004
lavfi.scd.time=3
frame:73   pts:37376   pts_time:3.041667
lavfi.scd.mafd=0.191
lavfi.scd.score=0.023
lavfi.scd.time=3.041667
frame:74   pts:37888   pts_time:3.083333
lavfi.scd.mafd=0.186
lavfi.scd.score=0.005
lavfi.scd.time=3.083333
frame:75   pts:38400   pts_time:3.125
lavfi.scd.mafd=0.160
lavfi.scd.score=0.026
lavfi.scd.time=3.125
frame:76   pts:38912   pts_time:3.166667
lavfi.scd.mafd=0.146
lavfi.scd.score=0.014
lavfi.scd.time=3.166667
frame:77   pts:39424   pts_time:3.208333
lavfi.scd.mafd=0.171
lavfi.scd.score=0.025
lavfi.scd.time=3.208333
frame:78   pts:39936   pts_time:3.25
lavfi.scd.mafd=0.163
lavfi.scd.score=0.008
lavfi.scd.time=3.25
frame:79   pts:40448   pts_time:3.291667
lavfi.scd.mafd=0.206
lavfi.scd.score=0.043
lavfi.scd.time=3.291667
frame:80   pts:40960   pts_time:3.333333
lavfi.scd.mafd=0.224
lavfi.scd.score=0.018
lavfi.scd.time=3.333333
frame:81   pts:41472   pts_time:3.375
lavfi.scd.mafd=0.221
lavfi.scd.score=0.002
lavfi.scd.time=3.375
frame:82   pts:41984   pts_time:3.416667
lavfi.scd.mafd=0.216
lavfi.scd.score=0.006
lavfi.scd.time=3.416667
frame:83   pts:42496   pts_time:3.458333
lavfi.scd.mafd=0.185
lavfi.scd.score=0.031
lavfi.scd.time=3.458333
frame:84   pts:43008   pts_time:3.5
lavfi.scd.mafd=0.193
lavfi.scd.score=0.008
lavfi.scd.time=3.5
frame:85   pts:43520   pts_time:3.541667
lavfi.scd.mafd=0.213
lavfi.scd.score=0.020
lavfi.scd.time=3.541667
frame:86   pts:44032   pts_time:3.583333
lavfi.scd.mafd=0.218
lavfi.scd.score=0.005
lavfi.scd.time=3.583333
frame:87   pts:44544   pts_time:3.625
lavfi.scd.mafd=0.251
lavfi.scd.score=0.032
lavfi.scd.time=3.625
frame:88   pts:45056   pts_time:3.666667
lavfi.scd.mafd=0.256
lavfi.scd.score=0.006
lavfi.scd.time=3.666667
frame:89   pts:45568   pts_time:3.708333
lavfi.scd.mafd=0.252
lavfi.scd.score=0.005
lavfi.scd.time=3.708333
frame:90   pts:46080   pts_time:3.75
lavfi.scd.mafd=0.249
lavfi.scd.score=0.003
lavfi.scd.time=3.75
frame:91   pts:46592   pts_time:3.791667
lavfi.scd.mafd=0.225
lavfi.scd.score=0.024
lavfi.scd.time=3.791667
frame:92   pts:47104   pts_time:3.833333
lavfi.scd.mafd=0.218
lavfi.scd.score=0.007
lavfi.scd.time=3.833333
frame:93   pts:47616   pts_time:3.875
lavfi.scd.mafd=0.221
lavfi.scd.score=0.003
lavfi.scd.time=3.875
frame:94   pts:48128   pts_time:3.916667
lavfi.scd.mafd=0.213
lavfi.scd.score=0.008
lavfi.scd.time=3.916667
frame:95   pts:48640   pts_time:3.958333
lavfi.scd.mafd=0.219
lavfi.scd.score=0.006
lavfi.scd.time=3.958333
frame:96   pts:49152   pts_time:4
lavfi.scd.mafd=0.227
lavfi.scd.score=0.008
lavfi.scd.time=4
frame:97   pts:49664   pts_time:4.041667
lavfi.scd.mafd=0.274
lavfi.scd.score=0.047
lavfi.scd.time=4.041667
frame:98   pts:50176   pts_time:4.083333
lavfi.scd.mafd=0.269
lavfi.scd.score=0.005
lavfi.scd.time=4.083333
frame:99   pts:50688   pts_time:4.125
lavfi.scd.mafd=0.235
lavfi.scd.score=0.035
lavfi.scd.time=4.125
frame:100  pts:51200   pts_time:4.166667
lavfi.scd.mafd=0.233
lavfi.scd.score=0.002
lavfi.scd.time=4.166667
frame:101  pts:51712   pts_time:4.208333
lavfi.scd.mafd=0.231
lavfi.scd.score=0.002
lavfi.scd.time=4.208333
frame:102  pts:52224   pts_time:4.25
lavfi.scd.mafd=0.207
lavfi.scd.score=0.024
lavfi.scd.time=4.25
frame:103  pts:52736   pts_time:4.291667
lavfi.scd.mafd=0.204
lavfi.scd.score=0.003
lavfi.scd.time=4.291667
frame:104  pts:53248   pts_time:4.333333
lavfi.scd.mafd=0.205
lavfi.scd.score=0.001
lavfi.scd.time=4.333333
frame:105  pts:53760   pts_time:4.375
lavfi.scd.mafd=0.243
lavfi.scd.score=0.037
lavfi.scd.time=4.375
frame:106  pts:54272   pts_time:4.416667
lavfi.scd.mafd=0.276
lavfi.scd.score=0.034
lavfi.scd.time=4.416667
frame:107  pts:54784   pts_time:4.458333
lavfi.scd.mafd=0.286
lavfi.scd.score=0.010
lavfi.scd.time=4.458333
frame:108  pts:55296   pts_time:4.5
lavfi.scd.mafd=0.285
lavfi.scd.score=0.001
lavfi.scd.time=4.5
frame:109  pts:55808   pts_time:4.541667
lavfi.scd.mafd=0.248
lavfi.scd.score=0.037
lavfi.scd.time=4.541667
frame:110  pts:56320   pts_time:4.583333
lavfi.scd.mafd=0.225
lavfi.scd.score=0.022
lavfi.scd.time=4.583333
frame:111  pts:56832   pts_time:4.625
lavfi.scd.mafd=0.252
lavfi.scd.score=0.026
lavfi.scd.time=4.625
frame:112  pts:57344   pts_time:4.666667
lavfi.scd.mafd=0.269
lavfi.scd.score=0.018
lavfi.scd.time=4.666667
frame:113  pts:57856   pts_time:4.708333
lavfi.scd.mafd=0.260
lavfi.scd.score=0.009
lavfi.scd.time=4.708333
frame:114  pts:58368   pts_time:4.75
lavfi.scd.mafd=0.263
lavfi.scd.score=0.003
lavfi.scd.time=4.75
frame:115  pts:58880   pts_time:4.791667
lavfi.scd.mafd=0.258
lavfi.scd.score=0.005
lavfi.scd.time=4.791667
frame:116  pts:59392   pts_time:4.833333
lavfi.scd.mafd=0.279
lavfi.scd.score=0.021
lavfi.scd.time=4.833333
frame:117  pts:59904   pts_time:4.875
lavfi.scd.mafd=0.297
lavfi.scd.score=0.018
lavfi.scd.time=4.875
frame:118  pts:60416   pts_time:4.916667
lavfi.scd.mafd=0.259
lavfi.scd.score=0.038
lavfi.scd.time=4.916667
frame:119  pts:60928   pts_time:4.958333
lavfi.scd.mafd=0.252
lavfi.scd.score=0.007
lavfi.scd.time=4.958333
frame:120  pts:61440   pts_time:5
lavfi.scd.mafd=0.479
lavfi.scd.score=0.227
lavfi.scd.time=5
frame:121  pts:61952   pts_time:5.041667
lavfi.scd.mafd=0.480
lavfi.scd.score=0.001
lavfi.scd.time=5.041667
frame:122  pts:62464   pts_time:5.083333
lavfi.scd.mafd=0.303
lavfi.scd.score=0.177
lavfi.scd.time=5.083333
frame:123  pts:62976   pts_time:5.125
lavfi.scd.mafd=0.289
lavfi.scd.score=0.013
lavfi.scd.time=5.125
frame:124  pts:63488   pts_time:5.166667
lavfi.scd.mafd=0.291
lavfi.scd.score=0.002
lavfi.scd.time=5.166667
frame:125  pts:64000   pts_time:5.208333
lavfi.scd.mafd=0.292
lavfi.scd.score=0.001
lavfi.scd.time=5.208333
frame:126  pts:64512   pts_time:5.25
lavfi.scd.mafd=0.315
lavfi.scd.score=0.023
lavfi.scd.time=5.25
frame:127  pts:65024   pts_time:5.291667
lavfi.scd.mafd=0.298
lavfi.scd.score=0.016
lavfi.scd.time=5.291667
frame:128  pts:65536   pts_time:5.333333
lavfi.scd.mafd=0.301
lavfi.scd.score=0.003
lavfi.scd.time=5.333333
frame:129  pts:66048   pts_time:5.375
lavfi.scd.mafd=0.329
lavfi.scd.score=0.028
lavfi.scd.time=5.375
frame:130  pts:66560   pts_time:5.416667
lavfi.scd.mafd=0.279
lavfi.scd.score=0.050
lavfi.scd.time=5.416667
frame:131  pts:67072   pts_time:5.458333
lavfi.scd.mafd=0.243
lavfi.scd.score=0.036
lavfi.scd.time=5.458333
frame:132  pts:67584   pts_time:5.5
lavfi.scd.mafd=0.253
lavfi.scd.score=0.009
lavfi.scd.time=5.5
frame:133  pts:68096   pts_time:5.541667
lavfi.scd.mafd=0.312
lavfi.scd.score=0.059
lavfi.scd.time=5.541667
frame:134  pts:68608   pts_time:5.583333
lavfi.scd.mafd=0.322
lavfi.scd.score=0.010
lavfi.scd.time=5.583333
frame:135  pts:69120   pts_time:5.625
lavfi.scd.mafd=0.356
lavfi.scd.score=0.033
lavfi.scd.time=5.625
frame:136  pts:69632   pts_time:5.666667
lavfi.scd.mafd=0.342
lavfi.scd.score=0.014
lavfi.scd.time=5.666667
frame:137  pts:70144   pts_time:5.708333
lavfi.scd.mafd=0.319
lavfi.scd.score=0.022
lavfi.scd.time=5.708333
frame:138  pts:70656   pts_time:5.75
lavfi.scd.mafd=0.276
lavfi.scd.score=0.043
lavfi.scd.time=5.75
frame:139  pts:71168   pts_time:5.791667
lavfi.scd.mafd=0.253
lavfi.scd.score=0.023
lavfi.scd.time=5.791667
frame:140  pts:71680   pts_time:5.833333
lavfi.scd.mafd=0.256
lavfi.scd.score=0.003
lavfi.scd.time=5.833333
frame:141  pts:72192   pts_time:5.875
lavfi.scd.mafd=0.213
lavfi.scd.score=0.043
lavfi.scd.time=5.875
frame:142  pts:72704   pts_time:5.916667
lavfi.scd.mafd=0.212
lavfi.scd.score=0.001
lavfi.scd.time=5.916667
frame:143  pts:73216   pts_time:5.958333
lavfi.scd.mafd=0.287
lavfi.scd.score=0.075
lavfi.scd.time=5.958333
frame:144  pts:73728   pts_time:6
lavfi.scd.mafd=0.294
lavfi.scd.score=0.007
lavfi.scd.time=6
frame:145  pts:74240   pts_time:6.041667
lavfi.scd.mafd=0.302
lavfi.scd.score=0.008
lavfi.scd.time=6.041667
frame:146  pts:74752   pts_time:6.083333
lavfi.scd.mafd=0.281
lavfi.scd.score=0.021
lavfi.scd.time=6.083333
frame:147  pts:75264   pts_time:6.125
lavfi.scd.mafd=0.239
lavfi.scd.score=0.042
lavfi.scd.time=6.125
frame:148  pts:75776   pts_time:6.166667
lavfi.scd.mafd=0.239
lavfi.scd.score=0.000
lavfi.scd.time=6.166667
frame:149  pts:76288   pts_time:6.208333
lavfi.scd.mafd=0.224
lavfi.scd.score=0.016
lavfi.scd.time=6.208333
frame:150  pts:76800   pts_time:6.25
lavfi.scd.mafd=0.223
lavfi.scd.score=0.001
lavfi.scd.time=6.25
frame:151  pts:77312   pts_time:6.291667
lavfi.scd.mafd=0.245
lavfi.scd.score=0.022
lavfi.scd.time=6.291667
frame:152  pts:77824   pts_time:6.333333
lavfi.scd.mafd=0.232
lavfi.scd.score=0.012
lavfi.scd.time=6.333333
frame:153  pts:78336   pts_time:6.375
lavfi.scd.mafd=0.263
lavfi.scd.score=0.030
lavfi.scd.time=6.375
frame:154  pts:78848   pts_time:6.416667
lavfi.scd.mafd=0.256
lavfi.scd.score=0.006
lavfi.scd.time=6.416667
frame:155  pts:79360   pts_time:6.458333
lavfi.scd.mafd=0.232
lavfi.scd.score=0.025
lavfi.scd.time=6.458333
frame:156  pts:79872   pts_time:6.5
lavfi.scd.mafd=0.222
lavfi.scd.score=0.010
lavfi.scd.time=6.5
frame:157  pts:80384   pts_time:6.541667
lavfi.scd.mafd=0.234
lavfi.scd.score=0.012
lavfi.scd.time=6.541667
frame:158  pts:80896   pts_time:6.583333
lavfi.scd.mafd=0.220
lavfi.scd.score=0.014
lavfi.scd.time=6.583333
frame:159  pts:81408   pts_time:6.625
lavfi.scd.mafd=0.253
lavfi.scd.score=0.033
lavfi.scd.time=6.625
frame:160  pts:81920   pts_time:6.666667
lavfi.scd.mafd=0.253
lavfi.scd.score=0.001
lavfi.scd.time=6.666667
frame:161  pts:82432   pts_time:6.708333
lavfi.scd.mafd=0.288
lavfi.scd.score=0.035
lavfi.scd.time=6.708333
frame:162  pts:82944   pts_time:6.75
lavfi.scd.mafd=0.262
lavfi.scd.score=0.026
lavfi.scd.time=6.75
frame:163  pts:83456   pts_time:6.791667
lavfi.scd.mafd=0.221
lavfi.scd.score=0.041
lavfi.scd.time=6.791667
frame:164  pts:83968   pts_time:6.833333
lavfi.scd.mafd=0.181
lavfi.scd.score=0.040
lavfi.scd.time=6.833333
frame:165  pts:84480   pts_time:6.875
lavfi.scd.mafd=0.190
lavfi.scd.score=0.009
lavfi.scd.time=6.875
frame:166  pts:84992   pts_time:6.916667
lavfi.scd.mafd=0.164
lavfi.scd.score=0.026
lavfi.scd.time=6.916667
frame:167  pts:85504   pts_time:6.958333
lavfi.scd.mafd=0.158
lavfi.scd.score=0.006
lavfi.scd.time=6.958333
frame:168  pts:86016   pts_time:7
lavfi.scd.mafd=0.158
lavfi.scd.score=0.001
lavfi.scd.time=7
frame:169  pts:86528   pts_time:7.041667
lavfi.scd.mafd=0.177
lavfi.scd.score=0.020
lavfi.scd.time=7.041667
frame:170  pts:87040   pts_time:7.083333
lavfi.scd.mafd=0.169
lavfi.scd.score=0.009
lavfi.scd.time=7.083333
frame:171  pts:87552   pts_time:7.125
lavfi.scd.mafd=0.147
lavfi.scd.score=0.022
lavfi.scd.time=7.125
frame:172  pts:88064   pts_time:7.166667
lavfi.scd.mafd=0.139
lavfi.scd.score=0.007
lavfi.scd.time=7.166667
frame:173  pts:88576   pts_time:7.208333
lavfi.scd.mafd=0.288
lavfi.scd.score=0.149
lavfi.scd.time=7.208333
frame:174  pts:89088   pts_time:7.25
lavfi.scd.mafd=0.287
lavfi.scd.score=0.002
lavfi.scd.time=7.25
frame:175  pts:89600   pts_time:7.291667
lavfi.scd.mafd=0.176
lavfi.scd.score=0.111
lavfi.scd.time=7.291667
frame:176  pts:90112   pts_time:7.333333
lavfi.scd.mafd=0.154
lavfi.scd.score=0.022
lavfi.scd.time=7.333333
frame:177  pts:90624   pts_time:7.375
lavfi.scd.mafd=0.128
lavfi.scd.score=0.026
lavfi.scd.time=7.375
frame:178  pts:91136   pts_time:7.416667
lavfi.scd.mafd=0.140
lavfi.scd.score=0.012
lavfi.scd.time=7.416667
frame:179  pts:91648   pts_time:7.458333
lavfi.scd.mafd=0.122
lavfi.scd.score=0.018
lavfi.scd.time=7.458333
frame:180  pts:92160   pts_time:7.5
lavfi.scd.mafd=0.130
lavfi.scd.score=0.008
lavfi.scd.time=7.5
frame:181  pts:92672   pts_time:7.541667
lavfi.scd.mafd=0.134
lavfi.scd.score=0.004
lavfi.scd.time=7.541667
frame:182  pts:93184   pts_time:7.583333
lavfi.scd.mafd=0.123
lavfi.scd.score=0.011
lavfi.scd.time=7.583333
frame:183  pts:93696   pts_time:7.625
lavfi.scd.mafd=0.269
lavfi.scd.score=0.146
lavfi.scd.time=7.625
frame:184  pts:94208   pts_time:7.666667
lavfi.scd.mafd=0.164
lavfi.scd.score=0.105
lavfi.scd.time=7.666667
frame:185  pts:94720   pts_time:7.708333
lavfi.scd.mafd=0.175
lavfi.scd.score=0.010
lavfi.scd.time=7.708333
frame:186  pts:95232   pts_time:7.75
lavfi.scd.mafd=0.177
lavfi.scd.score=0.002
lavfi.scd.time=7.75
frame:187  pts:95744   pts_time:7.791667
lavfi.scd.mafd=0.176
lavfi.scd.score=0.001
lavfi.scd.time=7.791667
frame:188  pts:96256   pts_time:7.833333
lavfi.scd.mafd=0.196
lavfi.scd.score=0.020
lavfi.scd.time=7.833333
frame:189  pts:96768   pts_time:7.875
lavfi.scd.mafd=0.207
lavfi.scd.score=0.011
lavfi.scd.time=7.875
frame:190  pts:97280   pts_time:7.916667
lavfi.scd.mafd=0.189
lavfi.scd.score=0.018
lavfi.scd.time=7.916667
frame:191  pts:97792   pts_time:7.958333
lavfi.scd.mafd=0.216
lavfi.scd.score=0.027
lavfi.scd.time=7.958333
frame:192  pts:98304   pts_time:8
lavfi.scd.mafd=0.253
lavfi.scd.score=0.037
lavfi.scd.time=8
frame:193  pts:98816   pts_time:8.041667
lavfi.scd.mafd=0.175
lavfi.scd.score=0.078
lavfi.scd.time=8.041667
frame:194  pts:99328   pts_time:8.083333
lavfi.scd.mafd=0.082
lavfi.scd.score=0.082
lavfi.scd.time=8.083333
frame:195  pts:99840   pts_time:8.125
lavfi.scd.mafd=0.070
lavfi.scd.score=0.012
lavfi.scd.time=8.125
frame:196  pts:100352  pts_time:8.166667
lavfi.scd.mafd=0.078
lavfi.scd.score=0.008
lavfi.scd.time=8.166667
frame:197  pts:100864  pts_time:8.208333
lavfi.scd.mafd=0.087
lavfi.scd.score=0.009
lavfi.scd.time=8.208333
frame:198  pts:101376  pts_time:8.25
lavfi.scd.mafd=0.123
lavfi.scd.score=0.036
lavfi.scd.time=8.25
frame:199  pts:101888  pts_time:8.291667
lavfi.scd.mafd=0.105
lavfi.scd.score=0.018
lavfi.scd.time=8.291667
frame:200  pts:102400  pts_time:8.333333
lavfi.scd.mafd=0.082
lavfi.scd.score=0.023
lavfi.scd.time=8.333333
frame:201  pts:102912  pts_time:8.375
lavfi.scd.mafd=0.094
lavfi.scd.score=0.012
lavfi.scd.time=8.375
frame:202  pts:103424  pts_time:8.416667
lavfi.scd.mafd=0.091
lavfi.scd.score=0.003
lavfi.scd.time=8.416667
frame:203  pts:103936  pts_time:8.458333
lavfi.scd.mafd=0.087
lavfi.scd.score=0.004
lavfi.scd.time=8.458333
frame:204  pts:104448  pts_time:8.5
lavfi.scd.mafd=0.135
lavfi.scd.score=0.048
lavfi.scd.time=8.5
frame:205  pts:104960  pts_time:8.541667
lavfi.scd.mafd=0.124
lavfi.scd.score=0.011
lavfi.scd.time=8.541667
frame:206  pts:105472  pts_time:8.583333
lavfi.scd.mafd=0.110
lavfi.scd.score=0.014
lavfi.scd.time=8.583333
frame:207  pts:105984  pts_time:8.625
lavfi.scd.mafd=0.105
lavfi.scd.score=0.004
lavfi.scd.time=8.625
frame:208  pts:106496  pts_time:8.666667
lavfi.scd.mafd=0.077
lavfi.scd.score=0.028
lavfi.scd.time=8.666667
frame:209  pts:107008  pts_time:8.708333
lavfi.scd.mafd=0.072
lavfi.scd.score=0.006
lavfi.scd.time=8.708333
frame:210  pts:107520  pts_time:8.75
lavfi.scd.mafd=0.081
lavfi.scd.score=0.010
lavfi.scd.time=8.75
frame:211  pts:108032  pts_time:8.791667
lavfi.scd.mafd=0.066
lavfi.scd.score=0.015
lavfi.scd.time=8.791667
frame:212  pts:108544  pts_time:8.833333
lavfi.scd.mafd=0.100
lavfi.scd.score=0.034
lavfi.scd.time=8.833333
frame:213  pts:109056  pts_time:8.875
lavfi.scd.mafd=0.116
lavfi.scd.score=0.016
lavfi.scd.time=8.875
frame:214  pts:109568  pts_time:8.916667
lavfi.scd.mafd=0.146
lavfi.scd.score=0.030
lavfi.scd.time=8.916667
frame:215  pts:110080  pts_time:8.958333
lavfi.scd.mafd=0.135
lavfi.scd.score=0.011
lavfi.scd.time=8.958333
frame:216  pts:110592  pts_time:9
lavfi.scd.mafd=0.107
lavfi.scd.score=0.028
lavfi.scd.time=9
frame:217  pts:111104  pts_time:9.041667
lavfi.scd.mafd=0.103
lavfi.scd.score=0.004
lavfi.scd.time=9.041667
frame:218  pts:111616  pts_time:9.083333
lavfi.scd.mafd=0.099
lavfi.scd.score=0.004
lavfi.scd.time=9.083333
frame:219  pts:112128  pts_time:9.125
lavfi.scd.mafd=0.091
lavfi.scd.score=0.008
lavfi.scd.time=9.125
frame:220  pts:112640  pts_time:9.166667
lavfi.scd.mafd=0.115
lavfi.scd.score=0.025
lavfi.scd.time=9.166667
frame:221  pts:113152  pts_time:9.208333
lavfi.scd.mafd=0.128
lavfi.scd.score=0.012
lavfi.scd.time=9.208333
frame:222  pts:113664  pts_time:9.25
lavfi.scd.mafd=0.131
lavfi.scd.score=0.003
lavfi.scd.time=9.25
frame:223  pts:114176  pts_time:9.291667
lavfi.scd.mafd=0.120
lavfi.scd.score=0.011
lavfi.scd.time=9.291667
frame:224  pts:114688  pts_time:9.333333
lavfi.scd.mafd=0.095
lavfi.scd.score=0.025
lavfi.scd.time=9.333333
frame:225  pts:115200  pts_time:9.375
lavfi.scd.mafd=0.093
lavfi.scd.score=0.002
lavfi.scd.time=9.375
frame:226  pts:115712  pts_time:9.416667
lavfi.scd.mafd=0.082
lavfi.scd.score=0.011
lavfi.scd.time=9.416667
frame:227  pts:116224  pts_time:9.458333
lavfi.scd.mafd=0.088
lavfi.scd.score=0.006
lavfi.scd.time=9.458333
frame:228  pts:116736  pts_time:9.5
lavfi.scd.mafd=0.126
lavfi.scd.score=0.039
lavfi.scd.time=9.5
frame:229  pts:117248  pts_time:9.541667
lavfi.scd.mafd=0.145
lavfi.scd.score=0.019
lavfi.scd.time=9.541667
frame:230  pts:117760  pts_time:9.583333
lavfi.scd.mafd=0.159
lavfi.scd.score=0.013
lavfi.scd.time=9.583333
frame:231  pts:118272  pts_time:9.625
lavfi.scd.mafd=0.153
lavfi.scd.score=0.005
lavfi.scd.time=9.625
frame:232  pts:118784  pts_time:9.666667
lavfi.scd.mafd=0.161
lavfi.scd.score=0.008
lavfi.scd.time=9.666667
frame:233  pts:119296  pts_time:9.708333
lavfi.scd.mafd=0.117
lavfi.scd.score=0.044
lavfi.scd.time=9.708333
frame:234  pts:119808  pts_time:9.75
lavfi.scd.mafd=0.124
lavfi.scd.score=0.007
lavfi.scd.time=9.75
frame:235  pts:120320  pts_time:9.791667
lavfi.scd.mafd=0.142
lavfi.scd.score=0.018
lavfi.scd.time=9.791667
frame:236  pts:120832  pts_time:9.833333
lavfi.scd.mafd=0.133
lavfi.scd.score=0.009
lavfi.scd.time=9.833333
frame:237  pts:121344  pts_time:9.875
lavfi.scd.mafd=0.333
lavfi.scd.score=0.200
lavfi.scd.time=9.875
frame:238  pts:121856  pts_time:9.916667
lavfi.scd.mafd=0.181
lavfi.scd.score=0.152
lavfi.scd.time=9.916667
frame:239  pts:122368  pts_time:9.958333
lavfi.scd.mafd=0.166
lavfi.scd.score=0.015
lavfi.scd.time=9.958333
frame:240  pts:122880  pts_time:10
lavfi.scd.mafd=0.120
lavfi.scd.score=0.046
lavfi.scd.time=10
frame:241  pts:123392  pts_time:10.041667
lavfi.scd.mafd=0.116
lavfi.scd.score=0.003
lavfi.scd.time=10.041667
frame:242  pts:123904  pts_time:10.083333
lavfi.scd.mafd=0.142
lavfi.scd.score=0.025
lavfi.scd.time=10.083333
frame:243  pts:124416  pts_time:10.125
lavfi.scd.mafd=0.167
lavfi.scd.score=0.025
lavfi.scd.time=10.125
frame:244  pts:124928  pts_time:10.166667
lavfi.scd.mafd=0.209
lavfi.scd.score=0.042
lavfi.scd.time=10.166667
frame:245  pts:125440  pts_time:10.208333
lavfi.scd.mafd=0.212
lavfi.scd.score=0.003
lavfi.scd.time=10.208333
frame:246  pts:125952  pts_time:10.25
lavfi.scd.mafd=0.191
lavfi.scd.score=0.021
lavfi.scd.time=10.25
frame:247  pts:126464  pts_time:10.291667
lavfi.scd.mafd=0.188
lavfi.scd.score=0.003
lavfi.scd.time=10.291667
frame:248  pts:126976  pts_time:10.333333
lavfi.scd.mafd=0.160
lavfi.scd.score=0.028
lavfi.scd.time=10.333333
frame:249  pts:127488  pts_time:10.375
lavfi.scd.mafd=0.145
lavfi.scd.score=0.015
lavfi.scd.time=10.375
frame:250  pts:128000  pts_time:10.416667
lavfi.scd.mafd=0.608
lavfi.scd.score=0.463
lavfi.scd.time=10.416667
frame:251  pts:128512  pts_time:10.458333
lavfi.scd.mafd=0.115
lavfi.scd.score=0.115
lavfi.scd.time=10.458333
frame:252  pts:129024  pts_time:10.5
lavfi.scd.mafd=0.163
lavfi.scd.score=0.048
lavfi.scd.time=10.5
frame:253  pts:129536  pts_time:10.541667
lavfi.scd.mafd=0.183
lavfi.scd.score=0.020
lavfi.scd.time=10.541667
frame:254  pts:130048  pts_time:10.583333
lavfi.scd.mafd=0.198
lavfi.scd.score=0.015
lavfi.scd.time=10.583333
frame:255  pts:130560  pts_time:10.625
lavfi.scd.mafd=0.195
lavfi.scd.score=0.003
lavfi.scd.time=10.625
frame:256  pts:131072  pts_time:10.666667
lavfi.scd.mafd=0.173
lavfi.scd.score=0.022
lavfi.scd.time=10.666667
frame:257  pts:131584  pts_time:10.708333
lavfi.scd.mafd=0.182
lavfi.scd.score=0.009
lavfi.scd.time=10.708333
frame:258  pts:132096  pts_time:10.75
lavfi.scd.mafd=0.208
lavfi.scd.score=0.026
lavfi.scd.time=10.75
frame:259  pts:132608  pts_time:10.791667
lavfi.scd.mafd=0.215
lavfi.scd.score=0.007
lavfi.scd.time=10.791667
frame:260  pts:133120  pts_time:10.833333
lavfi.scd.mafd=0.243
lavfi.scd.score=0.028
lavfi.scd.time=10.833333
frame:261  pts:133632  pts_time:10.875
lavfi.scd.mafd=0.250
lavfi.scd.score=0.007
lavfi.scd.time=10.875
frame:262  pts:134144  pts_time:10.916667
lavfi.scd.mafd=0.246
lavfi.scd.score=0.004
lavfi.scd.time=10.916667
frame:263  pts:134656  pts_time:10.958333
lavfi.scd.mafd=0.243
lavfi.scd.score=0.003
lavfi.scd.time=10.958333
frame:264  pts:135168  pts_time:11
lavfi.scd.mafd=0.222
lavfi.scd.score=0.020
lavfi.scd.time=11
frame:265  pts:135680  pts_time:11.041667
lavfi.scd.mafd=0.217
lavfi.scd.score=0.006
lavfi.scd.time=11.041667
frame:266  pts:136192  pts_time:11.083333
lavfi.scd.mafd=0.215
lavfi.scd.score=0.002
lavfi.scd.time=11.083333
frame:267  pts:136704  pts_time:11.125
lavfi.scd.mafd=0.208
lavfi.scd.score=0.007
lavfi.scd.time=11.125
frame:268  pts:137216  pts_time:11.166667
lavfi.scd.mafd=0.215
lavfi.scd.score=0.007
lavfi.scd.time=11.166667
frame:269  pts:137728  pts_time:11.208333
lavfi.scd.mafd=0.224
lavfi.scd.score=0.009
lavfi.scd.time=11.208333
frame:270  pts:138240  pts_time:11.25
lavfi.scd.mafd=0.273
lavfi.scd.score=0.049
lavfi.scd.time=11.25
frame:271  pts:138752  pts_time:11.291667
lavfi.scd.mafd=0.268
lavfi.scd.score=0.006
lavfi.scd.time=11.291667
frame:272  pts:139264  pts_time:11.333333
lavfi.scd.mafd=0.230
lavfi.scd.score=0.038
lavfi.scd.time=11.333333
frame:273  pts:139776  pts_time:11.375
lavfi.scd.mafd=0.228
lavfi.scd.score=0.002
lavfi.scd.time=11.375
frame:274  pts:140288  pts_time:11.416667
lavfi.scd.mafd=0.228
lavfi.scd.score=0.000
lavfi.scd.time=11.416667
frame:275  pts:140800  pts_time:11.458333
lavfi.scd.mafd=0.204
lavfi.scd.score=0.025
lavfi.scd.time=11.458333
frame:276  pts:141312  pts_time:11.5
lavfi.scd.mafd=0.205
lavfi.scd.score=0.001
lavfi.scd.time=11.5
frame:277  pts:141824  pts_time:11.541667
lavfi.scd.mafd=0.207
lavfi.scd.score=0.002
lavfi.scd.time=11.541667
frame:278  pts:142336  pts_time:11.583333
lavfi.scd.mafd=0.238
lavfi.scd.score=0.032
lavfi.scd.time=11.583333
frame:279  pts:142848  pts_time:11.625
lavfi.scd.mafd=0.272
lavfi.scd.score=0.033
lavfi.scd.time=11.625
frame:280  pts:143360  pts_time:11.666667
lavfi.scd.mafd=0.284
lavfi.scd.score=0.012
lavfi.scd.time=11.666667
frame:281  pts:143872  pts_time:11.708333
lavfi.scd.mafd=0.283
lavfi.scd.score=0.001
lavfi.scd.time=11.708333
frame:282  pts:144384  pts_time:11.75
lavfi.scd.mafd=0.247
lavfi.scd.score=0.035
lavfi.scd.time=11.75
frame:283  pts:144896  pts_time:11.791667
lavfi.scd.mafd=0.225
lavfi.scd.score=0.022
lavfi.scd.time=11.791667
frame:284  pts:145408  pts_time:11.833333
lavfi.scd.mafd=0.252
lavfi.scd.score=0.027
lavfi.scd.time=11.833333
frame:285  pts:145920  pts_time:11.875
lavfi.scd.mafd=0.270
lavfi.scd.score=0.018
lavfi.scd.time=11.875
frame:286  pts:146432  pts_time:11.916667
lavfi.scd.mafd=0.260
lavfi.scd.score=0.010
lavfi.scd.time=11.916667
frame:287  pts:146944  pts_time:11.958333
lavfi.scd.mafd=0.263
lavfi.scd.score=0.004
lavfi.scd.time=11.958333
frame:288  pts:147456  pts_time:12
lavfi.scd.mafd=0.256
lavfi.scd.score=0.007
lavfi.scd.time=12
frame:289  pts:147968  pts_time:12.041667
lavfi.scd.mafd=0.277
lavfi.scd.score=0.021
lavfi.scd.time=12.041667
frame:290  pts:148480  pts_time:12.083333
lavfi.scd.mafd=0.291
lavfi.scd.score=0.014
lavfi.scd.time=12.083333
frame:291  pts:148992  pts_time:12.125
lavfi.scd.mafd=0.260
lavfi.scd.score=0.030
lavfi.scd.time=12.125
frame:292  pts:149504  pts_time:12.166667
lavfi.scd.mafd=0.251
lavfi.scd.score=0.009
lavfi.scd.time=12.166667
frame:293  pts:150016  pts_time:12.208333
lavfi.scd.mafd=0.483
lavfi.scd.score=0.232
lavfi.scd.time=12.208333
frame:294  pts:150528  pts_time:12.25
lavfi.scd.mafd=0.473
lavfi.scd.score=0.009
lavfi.scd.time=12.25
frame:295  pts:151040  pts_time:12.291667
lavfi.scd.mafd=0.302
lavfi.scd.score=0.171
lavfi.scd.time=12.291667
frame:296  pts:151552  pts_time:12.333333
lavfi.scd.mafd=0.290
lavfi.scd.score=0.012
lavfi.scd.time=12.333333
frame:297  pts:152064  pts_time:12.375
lavfi.scd.mafd=0.291
lavfi.scd.score=0.001
lavfi.scd.time=12.375
frame:298  pts:152576  pts_time:12.416667
lavfi.scd.mafd=0.292
lavfi.scd.score=0.001
lavfi.scd.time=12.416667
frame:299  pts:153088  pts_time:12.458333
lavfi.scd.mafd=0.310
lavfi.scd.score=0.018
lavfi.scd.time=12.458333
frame:300  pts:153600  pts_time:12.5
lavfi.scd.mafd=0.297
lavfi.scd.score=0.013
lavfi.scd.time=12.5
frame:301  pts:154112  pts_time:12.541667
lavfi.scd.mafd=0.301
lavfi.scd.score=0.004
lavfi.scd.time=12.541667
frame:302  pts:154624  pts_time:12.583333
lavfi.scd.mafd=0.325
lavfi.scd.score=0.024
lavfi.scd.time=12.583333
frame:303  pts:155136  pts_time:12.625
lavfi.scd.mafd=0.281
lavfi.scd.score=0.044
lavfi.scd.time=12.625
frame:304  pts:155648  pts_time:12.666667
lavfi.scd.mafd=0.244
lavfi.scd.score=0.037
lavfi.scd.time=12.666667
frame:305  pts:156160  pts_time:12.708333
lavfi.scd.mafd=0.253
lavfi.scd.score=0.009
lavfi.scd.time=12.708333
frame:306  pts:156672  pts_time:12.75
lavfi.scd.mafd=0.310
lavfi.scd.score=0.056
lavfi.scd.time=12.75
frame:307  pts:157184  pts_time:12.791667
lavfi.scd.mafd=0.319
lavfi.scd.score=0.010
lavfi.scd.time=12.791667
frame:308  pts:157696  pts_time:12.833333
lavfi.scd.mafd=0.358
lavfi.scd.score=0.038
lavfi.scd.time=12.833333
frame:309  pts:158208  pts_time:12.875
lavfi.scd.mafd=0.344
lavfi.scd.score=0.013
lavfi.scd.time=12.875
frame:310  pts:158720  pts_time:12.916667
lavfi.scd.mafd=0.317
lavfi.scd.score=0.028
lavfi.scd.time=12.916667
frame:311  pts:159232  pts_time:12.958333
lavfi.scd.mafd=0.274
lavfi.scd.score=0.043
lavfi.scd.time=12.958333
frame:312  pts:159744  pts_time:13
lavfi.scd.mafd=0.256
lavfi.scd.score=0.017
lavfi.scd.time=13
frame:313  pts:160256  pts_time:13.041667
lavfi.scd.mafd=0.259
lavfi.scd.score=0.003
lavfi.scd.time=13.041667
frame:314  pts:160768  pts_time:13.083333
lavfi.scd.mafd=0.213
lavfi.scd.score=0.046
lavfi.scd.time=13.083333
frame:315  pts:161280  pts_time:13.125
lavfi.scd.mafd=0.213
lavfi.scd.score=0.001
lavfi.scd.time=13.125
frame:316  pts:161792  pts_time:13.166667
lavfi.scd.mafd=0.287
lavfi.scd.score=0.074
lavfi.scd.time=13.166667
frame:317  pts:162304  pts_time:13.208333
lavfi.scd.mafd=0.292
lavfi.scd.score=0.004
lavfi.scd.time=13.208333
frame:318  pts:162816  pts_time:13.25
lavfi.scd.mafd=0.302
lavfi.scd.score=0.010
lavfi.scd.time=13.25
frame:319  pts:163328  pts_time:13.291667
lavfi.scd.mafd=0.282
lavfi.scd.score=0.020
lavfi.scd.time=13.291667
frame:320  pts:163840  pts_time:13.333333
lavfi.scd.mafd=0.240
lavfi.scd.score=0.042
lavfi.scd.time=13.333333
frame:321  pts:164352  pts_time:13.375
lavfi.scd.mafd=0.239
lavfi.scd.score=0.001
lavfi.scd.time=13.375
frame:322  pts:164864  pts_time:13.416667
lavfi.scd.mafd=0.225
lavfi.scd.score=0.014
lavfi.scd.time=13.416667
frame:323  pts:165376  pts_time:13.458333
lavfi.scd.mafd=0.224
lavfi.scd.score=0.001
lavfi.scd.time=13.458333
frame:324  pts:165888  pts_time:13.5
lavfi.scd.mafd=0.244
lavfi.scd.score=0.020
lavfi.scd.time=13.5
frame:325  pts:166400  pts_time:13.541667
lavfi.scd.mafd=0.232
lavfi.scd.score=0.013
lavfi.scd.time=13.541667
frame:326  pts:166912  pts_time:13.583333
lavfi.scd.mafd=0.262
lavfi.scd.score=0.031
lavfi.scd.time=13.583333
frame:327  pts:167424  pts_time:13.625
lavfi.scd.mafd=0.257
lavfi.scd.score=0.005
lavfi.scd.time=13.625
frame:328  pts:167936  pts_time:13.666667
lavfi.scd.mafd=0.234
lavfi.scd.score=0.023
lavfi.scd.time=13.666667
frame:329  pts:168448  pts_time:13.708333
lavfi.scd.mafd=0.223
lavfi.scd.score=0.011
lavfi.scd.time=13.708333
frame:330  pts:168960  pts_time:13.75
lavfi.scd.mafd=0.234
lavfi.scd.score=0.012
lavfi.scd.time=13.75
frame:331  pts:169472  pts_time:13.791667
lavfi.scd.mafd=0.221
lavfi.scd.score=0.014
lavfi.scd.time=13.791667
frame:332  pts:169984  pts_time:13.833333
lavfi.scd.mafd=0.252
lavfi.scd.score=0.031
lavfi.scd.time=13.833333
frame:333  pts:170496  pts_time:13.875
lavfi.scd.mafd=0.251
lavfi.scd.score=0.000
lavfi.scd.time=13.875
frame:334  pts:171008  pts_time:13.916667
lavfi.scd.mafd=0.289
lavfi.scd.score=0.037
lavfi.scd.time=13.916667
frame:335  pts:171520  pts_time:13.958333
lavfi.scd.mafd=0.262
lavfi.scd.score=0.026
lavfi.scd.time=13.958333
frame:336  pts:172032  pts_time:14
lavfi.scd.mafd=0.215
lavfi.scd.score=0.047
lavfi.scd.time=14
frame:337  pts:172544  pts_time:14.041667
lavfi.scd.mafd=0.177
lavfi.scd.score=0.038
lavfi.scd.time=14.041667
frame:338  pts:173056  pts_time:14.083333
lavfi.scd.mafd=0.182
lavfi.scd.score=0.005
lavfi.scd.time=14.083333
frame:339  pts:173568  pts_time:14.125
lavfi.scd.mafd=0.158
lavfi.scd.score=0.024
lavfi.scd.time=14.125
frame:340  pts:174080  pts_time:14.166667
lavfi.scd.mafd=0.154
lavfi.scd.score=0.004
lavfi.scd.time=14.166667
frame:341  pts:174592  pts_time:14.208333
lavfi.scd.mafd=0.150
lavfi.scd.score=0.004
lavfi.scd.time=14.208333
frame:342  pts:175104  pts_time:14.25
lavfi.scd.mafd=0.165
lavfi.scd.score=0.014
lavfi.scd.time=14.25
frame:343  pts:175616  pts_time:14.291667
lavfi.scd.mafd=0.159
lavfi.scd.score=0.006
lavfi.scd.time=14.291667
frame:344  pts:176128  pts_time:14.333333
lavfi.scd.mafd=0.140
lavfi.scd.score=0.018
lavfi.scd.time=14.333333
frame:345  pts:176640  pts_time:14.375
lavfi.scd.mafd=0.133
lavfi.scd.score=0.008
lavfi.scd.time=14.375
